<?xml version="1.0" encoding="UTF-8"?>
<svg id="Layer_1" xmlns="http://www.w3.org/2000/svg" version="1.1" xmlns:xlink="http://www.w3.org/1999/xlink" viewBox="0 0 500 500">
  <!-- Generator: Adobe Illustrator 29.6.1, SVG Export Plug-In . SVG Version: 2.1.1 Build 9)  -->
  <defs>
    <style>
      .st0 {
        fill: #fff;
      }

      .st1 {
        fill: url(#linear-gradient);
      }
    </style>
    <linearGradient id="linear-gradient" x1="250" y1="505.3" x2="250" y2="-5.3" gradientUnits="userSpaceOnUse">
      <stop offset="0" stop-color="#8e1fff"/>
      <stop offset="1" stop-color="#c000ff"/>
    </linearGradient>
  </defs>
  <rect class="st1" x="-5.3" y="-5.3" width="510.5" height="510.5"/>
  <g>
    <path class="st0" d="M166.8,176.7c2.6,0,4.7,2.1,4.8,4.7.4,8.4,1.8,16.7,4.6,24.6.4,1,3.1,6.8,2.8,7.2l-50.3-36.4h38.1Z"/>
    <path class="st0" d="M371.4,176.7l-50.3,36.4c4.3-10.1,7-20.8,7.5-31.7.1-2.6,2.1-4.7,4.8-4.7h38.1Z"/>
    <path class="st0" d="M183,160.9c9,0,17.8,7.2,18.9,16.1,3.3,25.2,24.7,43.8,48.1,43.8,25.4-.8,44.5-19.4,48.5-44.3,1.4-9.1,9.6-15.6,18.9-15.6h.7c.5,2.1,1.1,4.1,1.4,6.3,8.2,47.3-32.2,88.8-79.7,82-39.1-5.6-66.4-43.7-59.1-82.7.3-1.8.7-4.1,1.6-5.6h.7Z"/>
    <path class="st0" d="M289.8,247l-40.2,103-39.5-103c24.2,14.4,55.4,14.5,79.7,0Z"/>
    <path class="st0" d="M278,178.2c0,16-12.5,29-28,29s-28-13-28-29"/>
    <polyline class="st0" points="221.9 178.2 250 150.1 278.1 178.2"/>
    <polygon class="st0" points="271 319.4 297.4 253.3 315.3 233.9 350.5 208.2 324.7 234 305 253.7 271 319.4"/>
    <polygon class="st0" points="291.7 300.3 309.1 256.9 320.8 244.2 343.9 227.3 327 244.2 314 257.2 291.7 300.3"/>
    <polygon class="st0" points="228.1 319.4 201.6 253.3 183.8 233.9 148.6 208.2 174.3 234 194.1 253.7 228.1 319.4"/>
    <polygon class="st0" points="207.4 300.3 190 256.9 178.3 244.2 155.2 227.3 172.1 244.2 185 257.2 207.4 300.3"/>
  </g>
</svg>